<svg width="17" height="14" viewBox="0 0 17 14" fill="none" xmlns="http://www.w3.org/2000/svg">
<path d="M12.8484 3.87926C12.7146 3.87926 12.606 3.98787 12.606 4.12168C12.606 4.2555 12.7146 4.36411 12.8484 4.36411C12.9822 4.36411 13.0909 4.2555 13.0909 4.12168C13.0909 3.98787 12.9822 3.87926 12.8484 3.87926Z" fill="#FF5450"/>
<path fill-rule="evenodd" clip-rule="evenodd" d="M11.9831 2.58586H15.5189C16.0515 2.58586 16.4848 3.02086 16.4848 3.55556V12.6061C16.4848 13.1408 16.0515 13.5758 15.5189 13.5758H0.965909C0.433307 13.5758 0 13.1408 0 12.6061V3.55556C0 3.02086 0.433307 2.58586 0.965909 2.58586H1.28788V2.26263C1.28788 1.72794 1.72119 1.29293 2.25379 1.29293H2.89773C3.43033 1.29293 3.86364 1.72794 3.86364 2.26263V2.58586H4.50178L5.52262 0.536178C5.68731 0.205446 6.01835 0 6.38659 0H10.0983C10.4664 0 10.7975 0.205446 10.9622 0.536145L11.9831 2.58586ZM6.38663 0.645966C6.26389 0.645966 6.15355 0.714491 6.09862 0.824778L5.22174 2.58536H11.2632L10.3863 0.824778C10.3314 0.714491 10.221 0.645966 10.0983 0.645966H6.38663ZM1.93179 2.2618C1.93179 2.08357 2.07623 1.93857 2.25376 1.93857H2.8977C3.07524 1.93857 3.21967 2.08357 3.21967 2.2618V2.58503H1.93179V2.2618ZM4.71532 5.81357H0.643982V10.3421H4.71529C4.28745 9.67112 4.05686 8.88783 4.05686 8.07943C4.05686 7.27109 4.28742 6.48463 4.71532 5.81357ZM8.24247 4.52521C10.1786 4.52521 11.7841 6.09996 11.7841 8.08076C11.7841 10.0593 10.1808 11.6363 8.24247 11.6363C6.30238 11.6363 4.70081 10.0576 4.70081 8.08076C4.70081 6.10242 6.30389 4.52521 8.24247 4.52521ZM15.519 12.9291C15.6965 12.9291 15.841 12.7841 15.841 12.6059V10.9897H11.2617C10.4753 11.8129 9.38324 12.2826 8.24247 12.2826C7.10189 12.2826 6.00996 11.8131 5.22323 10.9897H0.643982V12.6059C0.643982 12.7841 0.788418 12.9291 0.965952 12.9291H15.519ZM15.8409 10.3431H11.7695C12.1974 9.67203 12.428 8.88884 12.428 8.08047C12.428 7.27209 12.1974 6.4889 11.7695 5.81784H15.8409V10.3431ZM11.2617 5.172H15.841V3.55584C15.841 3.37761 15.6965 3.2326 15.519 3.2326H0.965952C0.788418 3.2326 0.643982 3.37761 0.643982 3.55584V5.172H5.2232C6.0097 4.34879 7.10173 3.87907 8.24247 3.87907C9.38308 3.87907 10.475 4.34866 11.2617 5.172Z" fill="#50555C"/>
<path d="M9.39394 1.45455H7.57575C7.40839 1.45455 7.27272 1.56308 7.27272 1.69697C7.27272 1.83086 7.40839 1.93939 7.57575 1.93939H9.39394C9.56127 1.93939 9.69697 1.83086 9.69697 1.69697C9.69697 1.56308 9.56127 1.45455 9.39394 1.45455Z" fill="#FF5450"/>
<path fill-rule="evenodd" clip-rule="evenodd" d="M5.33325 8.24289C5.33325 6.63882 6.63827 5.3338 8.24234 5.3338C9.84641 5.3338 11.1514 6.63882 11.1514 8.24289C11.1514 9.84696 9.84641 11.152 8.24234 11.152C6.63827 11.152 5.33325 9.84696 5.33325 8.24289ZM5.97974 8.24221C5.97974 9.48983 6.99475 10.5048 8.24236 10.5048C9.48997 10.5048 10.505 9.48983 10.505 8.24221C10.505 6.9946 9.48997 5.97958 8.24236 5.97958C6.99475 5.97958 5.97974 6.9946 5.97974 8.24221Z" fill="#FF5450"/>
<path d="M8.40399 6.78835C7.51284 6.78835 6.78783 7.51336 6.78783 8.40452C6.78783 8.58304 6.93254 8.72775 7.11106 8.72775C7.28958 8.72775 7.43429 8.58304 7.43429 8.40452C7.43429 7.86982 7.8693 7.43482 8.40399 7.43482C8.58248 7.43482 8.72722 7.29011 8.72722 7.11159C8.72722 6.93306 8.58248 6.78835 8.40399 6.78835Z" fill="#FF5450"/>
<path d="M15.1516 3.87926H14.4244C14.2236 3.87926 14.0607 3.98779 14.0607 4.12168C14.0607 4.25557 14.2236 4.36411 14.4244 4.36411H15.1516C15.3524 4.36411 15.5153 4.25557 15.5153 4.12168C15.5153 3.98779 15.3524 3.87926 15.1516 3.87926Z" fill="#FF5450"/>
</svg>
